<?xml version="1.0" standalone="no"?><!DOCTYPE svg PUBLIC "-//W3C//DTD SVG 1.1//EN" "http://www.w3.org/Graphics/SVG/1.1/DTD/svg11.dtd"><svg t="1753956605755" class="icon" viewBox="0 0 1024 1024" version="1.1" xmlns="http://www.w3.org/2000/svg" p-id="1525" xmlns:xlink="http://www.w3.org/1999/xlink" width="200" height="200"><path d="M960.495896 824.992654c0 5.884763-5.833592 5.884763 0 0l-11.667183 11.718355v-5.833592c-285.231922 17.551946-355.081505 117.030033-378.364699 140.415572v52.655839H419.148837V99.375743L483.164828 0l87.299186 99.478087v152.133926a197.830393 197.830393 0 0 1 58.233571 5.884764 226.742492 226.742492 0 0 1 221.16476 228.175303 215.638199 215.638199 0 0 1-192.047974 216.559293c5.78242 11.667183-11.667183 0-11.667183 0h-29.116786l11.667183-140.466744-5.833591 17.551947-5.833592-5.833592h29.116786A77.167158 77.167158 0 0 0 721.830362 485.67208a99.733946 99.733946 0 0 0-87.299185-93.593323c-75.683174 0-46.566388 23.385538-52.39998 52.655839v351.0901c93.132777-35.103893 69.849583-76.041377 372.531108-81.874968h11.667183v11.718355l58.182399 52.655839-64.015991 46.822248z m-960.495727-193.122583l104.79996-87.759732h250.281545v158.01869H104.800129z" fill="#1E90FD" p-id="1526"></path></svg>